<mxfile host="65bd71144e">
    <diagram id="zNblcEmeuWkSD1Leb3As" name="page1">
        <mxGraphModel dx="78" dy="500" grid="1" gridSize="10" guides="1" tooltips="1" connect="1" arrows="1" fold="1" page="1" pageScale="1" pageWidth="850" pageHeight="1100" math="0" shadow="0">
            <root>
                <mxCell id="0"/>
                <mxCell id="1" parent="0"/>
                <mxCell id="3" value="User" style="swimlane;fontSize=19;" parent="1" vertex="1">
                    <mxGeometry x="940" y="170" width="230" height="174" as="geometry"/>
                </mxCell>
                <mxCell id="11" value="&lt;p style=&quot;text-align: left; margin: 0px 0px 0px 4px; font-size: 19px;&quot;&gt;+ ID: number&lt;br style=&quot;font-size: 19px;&quot;&gt;+ email: string&lt;/p&gt;&lt;p style=&quot;text-align: left; margin: 0px 0px 0px 4px; font-size: 19px;&quot;&gt;+ name: string&lt;br style=&quot;font-size: 19px;&quot;&gt;&lt;/p&gt;&lt;p style=&quot;text-align: left; margin: 0px 0px 0px 4px; font-size: 19px;&quot;&gt;+ password: string&lt;br style=&quot;font-size: 19px;&quot;&gt;&lt;/p&gt;&lt;p style=&quot;text-align: left; margin: 0px 0px 0px 4px; font-size: 19px;&quot;&gt;+ lastname: string&lt;/p&gt;" style="text;html=1;align=center;verticalAlign=middle;resizable=0;points=[];autosize=1;strokeColor=none;fillColor=none;fontSize=19;" parent="3" vertex="1">
                    <mxGeometry x="10" y="27" width="170" height="120" as="geometry"/>
                </mxCell>
                <mxCell id="34" style="edgeStyle=none;html=1;fontSize=19;endArrow=ERmany;endFill=0;exitX=0;exitY=0.5;exitDx=0;exitDy=0;entryX=0;entryY=0.25;entryDx=0;entryDy=0;startArrow=ERmany;startFill=0;" parent="1" source="8" target="10" edge="1">
                    <mxGeometry relative="1" as="geometry">
                        <mxPoint x="1280" y="430" as="sourcePoint"/>
                        <mxPoint x="1630" y="730" as="targetPoint"/>
                        <Array as="points">
                            <mxPoint x="1210" y="300"/>
                            <mxPoint x="1210" y="633"/>
                        </Array>
                    </mxGeometry>
                </mxCell>
                <mxCell id="8" value="Cart" style="swimlane;fontSize=19;" parent="1" vertex="1">
                    <mxGeometry x="1330" y="192" width="265" height="198" as="geometry"/>
                </mxCell>
                <mxCell id="16" value="&lt;p style=&quot;text-align: left; margin: 0px 0px 0px 4px; font-size: 19px;&quot;&gt;+ ID: number&lt;br style=&quot;font-size: 19px;&quot;&gt;+ state: string&lt;/p&gt;&lt;p style=&quot;text-align: left; margin: 0px 0px 0px 4px; font-size: 19px;&quot;&gt;+ paymentState: string&lt;br style=&quot;font-size: 19px;&quot;&gt;&lt;/p&gt;&lt;p style=&quot;text-align: left; margin: 0px 0px 0px 4px; font-size: 19px;&quot;&gt;+ userId:&lt;br style=&quot;font-size: 19px;&quot;&gt;&lt;/p&gt;&lt;p style=&quot;text-align: left; margin: 0px 0px 0px 4px; font-size: 19px;&quot;&gt;+ total:&lt;/p&gt;" style="text;html=1;align=center;verticalAlign=middle;resizable=0;points=[];autosize=1;strokeColor=none;fillColor=none;fontSize=19;" parent="8" vertex="1">
                    <mxGeometry x="15" y="40" width="210" height="120" as="geometry"/>
                </mxCell>
                <mxCell id="9" value="Product" style="swimlane;fontSize=19;" parent="1" vertex="1">
                    <mxGeometry x="960" y="670" width="210" height="260" as="geometry"/>
                </mxCell>
                <mxCell id="15" value="&lt;p style=&quot;text-align: left; margin: 0px 0px 0px 4px; font-size: 19px;&quot;&gt;+ ID: number&lt;/p&gt;&lt;p style=&quot;text-align: left; margin: 0px 0px 0px 4px; font-size: 19px;&quot;&gt;+ name: string&lt;br style=&quot;font-size: 19px;&quot;&gt;+ color: string&lt;/p&gt;&lt;p style=&quot;text-align: left; margin: 0px 0px 0px 4px; font-size: 19px;&quot;&gt;+ size: string&lt;br style=&quot;font-size: 19px;&quot;&gt;&lt;/p&gt;&lt;p style=&quot;text-align: left; margin: 0px 0px 0px 4px; font-size: 19px;&quot;&gt;+ price: number&lt;/p&gt;&lt;p style=&quot;text-align: left; margin: 0px 0px 0px 4px; font-size: 19px;&quot;&gt;+ brand: string&lt;br style=&quot;font-size: 19px;&quot;&gt;&lt;/p&gt;&lt;p style=&quot;text-align: left; margin: 0px 0px 0px 4px; font-size: 19px;&quot;&gt;+ model: string&lt;br style=&quot;font-size: 19px;&quot;&gt;&lt;/p&gt;&lt;p style=&quot;text-align: left; margin: 0px 0px 0px 4px; font-size: 19px;&quot;&gt;+ gender: string&lt;/p&gt;&lt;p style=&quot;text-align: left; margin: 0px 0px 0px 4px; font-size: 19px;&quot;&gt;+ type: string&lt;/p&gt;&lt;div style=&quot;font-size: 19px;&quot;&gt;&lt;br style=&quot;font-size: 19px;&quot;&gt;&lt;/div&gt;" style="text;html=1;align=center;verticalAlign=middle;resizable=0;points=[];autosize=1;strokeColor=none;fillColor=none;fontSize=19;" parent="9" vertex="1">
                    <mxGeometry x="30" y="30" width="150" height="240" as="geometry"/>
                </mxCell>
                <mxCell id="10" value="Products_Carts" style="swimlane;fontSize=15;" parent="1" vertex="1">
                    <mxGeometry x="1380" y="590" width="210" height="170" as="geometry"/>
                </mxCell>
                <mxCell id="17" value="&lt;p style=&quot;text-align: left ; margin: 0px 0px 0px 4px ; font-size: 19px&quot;&gt;&lt;font style=&quot;font-size: 19px&quot;&gt;+ idCart: number&lt;/font&gt;&lt;/p&gt;&lt;p style=&quot;text-align: left ; margin: 0px 0px 0px 4px ; font-size: 19px&quot;&gt;&lt;font style=&quot;font-size: 19px&quot;&gt;+ idProduct: number&lt;br&gt;&lt;/font&gt;&lt;/p&gt;&lt;p style=&quot;text-align: left ; margin: 0px 0px 0px 4px ; font-size: 19px&quot;&gt;&lt;font style=&quot;font-size: 19px&quot;&gt;+ quantity: number&lt;br&gt;&lt;/font&gt;&lt;/p&gt;&lt;div style=&quot;font-size: 19px&quot;&gt;&lt;br&gt;&lt;/div&gt;" style="text;html=1;align=center;verticalAlign=middle;resizable=0;points=[];autosize=1;strokeColor=none;fillColor=none;" parent="10" vertex="1">
                    <mxGeometry y="55" width="190" height="60" as="geometry"/>
                </mxCell>
                <mxCell id="26" value="" style="edgeStyle=entityRelationEdgeStyle;fontSize=19;html=1;endArrow=ERmany;startArrow=ERmany;entryX=0;entryY=0.5;entryDx=0;entryDy=0;exitX=1;exitY=0.25;exitDx=0;exitDy=0;" parent="1" source="9" target="10" edge="1">
                    <mxGeometry width="100" height="100" relative="1" as="geometry">
                        <mxPoint x="1190" y="619" as="sourcePoint"/>
                        <mxPoint x="1270" y="373" as="targetPoint"/>
                    </mxGeometry>
                </mxCell>
                <mxCell id="27" value="" style="edgeStyle=entityRelationEdgeStyle;fontSize=19;html=1;endArrow=ERoneToMany;exitX=1;exitY=0.25;exitDx=0;exitDy=0;entryX=0;entryY=0.25;entryDx=0;entryDy=0;" parent="1" source="3" target="8" edge="1">
                    <mxGeometry width="100" height="100" relative="1" as="geometry">
                        <mxPoint x="1145" y="90" as="sourcePoint"/>
                        <mxPoint x="1120" y="362" as="targetPoint"/>
                    </mxGeometry>
                </mxCell>
                <mxCell id="30" value="&lt;font style=&quot;font-size: 29px&quot;&gt;Diagrama de base datos&lt;/font&gt;" style="text;html=1;strokeColor=none;fillColor=none;align=center;verticalAlign=middle;whiteSpace=wrap;rounded=0;" parent="1" vertex="1">
                    <mxGeometry x="1105" y="30" width="340" height="30" as="geometry"/>
                </mxCell>
            </root>
        </mxGraphModel>
    </diagram>
</mxfile>